<svg width="25" height="24" viewBox="0 0 25 24" fill="none" xmlns="http://www.w3.org/2000/svg">
<g clip-path="url(#clip0_147_663)">
<path d="M8.32513 22.5C17.3821 22.5 22.3366 14.9955 22.3366 8.499C22.3366 8.289 22.3366 8.076 22.3276 7.866C23.2922 7.16773 24.1247 6.30323 24.7861 5.313C23.8851 5.71028 22.9303 5.97211 21.9526 6.09C22.9824 5.47446 23.7537 4.50595 24.1231 3.3645C23.1556 3.93769 22.0967 4.34006 20.9926 4.554C20.2504 3.76354 19.2682 3.23988 18.1983 3.06414C17.1283 2.8884 16.0302 3.07038 15.0741 3.58191C14.1181 4.09343 13.3573 4.90595 12.9098 5.89359C12.4623 6.88124 12.3529 7.9889 12.5986 9.045C10.6407 8.94683 8.72536 8.4382 6.9767 7.55212C5.22804 6.66603 3.68516 5.42227 2.44813 3.9015C1.82014 4.98613 1.62849 6.2691 1.9121 7.4899C2.19571 8.7107 2.93332 9.7778 3.97513 10.4745C3.19444 10.448 2.43091 10.2383 1.74613 9.8625V9.93C1.74748 11.0662 2.14109 12.1671 2.86044 13.0466C3.57979 13.9262 4.58075 14.5303 5.69413 14.757C5.27153 14.8734 4.83498 14.9315 4.39663 14.9295C4.08761 14.9304 3.7792 14.9018 3.47563 14.844C3.79031 15.8221 4.40304 16.6773 5.228 17.2897C6.05296 17.9022 7.04883 18.2413 8.07613 18.2595C6.33097 19.6302 4.17523 20.3736 1.95613 20.37C1.56511 20.3717 1.17437 20.3491 0.786133 20.3025C3.0384 21.7384 5.65408 22.5008 8.32513 22.5Z" fill="#123B3A"/>
</g>
<defs>
<clipPath id="clip0_147_663">
<rect width="24" height="24" fill="white" transform="translate(0.786133)"/>
</clipPath>
</defs>
</svg>
