<svg width="21" height="21" viewBox="0 0 21 21" fill="none" xmlns="http://www.w3.org/2000/svg">
<path fill-rule="evenodd" clip-rule="evenodd" d="M13.9607 3.35522C16.1849 3.35522 18.3157 5.23689 17.6899 7.69356C17.0587 10.1579 15.7766 12.4072 13.9779 14.206C12.1792 16.0049 9.92997 17.2871 7.46571 17.9186C5.00905 18.5427 3.12738 16.4119 3.12738 14.1886V13.3552C3.12738 12.4161 3.87821 11.7344 4.71071 11.6519C5.39321 11.5845 6.06315 11.4233 6.70155 11.1727C6.85239 11.1135 7.01724 11.0995 7.17591 11.1325C7.33457 11.1655 7.48017 11.2441 7.59488 11.3586L8.43071 12.1936C9.91232 11.3635 11.1357 10.1402 11.9657 8.65856L11.1307 7.82189C11.0162 7.70718 10.9377 7.56159 10.9047 7.40292C10.8717 7.24425 10.8856 7.0794 10.9449 6.92856C11.1955 6.28989 11.3568 5.61967 11.424 4.93689C11.5065 4.10689 12.1882 3.35522 13.1274 3.35522H13.9607Z" fill="white"/>
</svg>
