<svg width="25" height="24" viewBox="0 0 25 24" fill="none" xmlns="http://www.w3.org/2000/svg">
<path d="M4.78613 20C4.23613 20 3.76513 19.804 3.37313 19.412C2.98113 19.02 2.78547 18.5493 2.78613 18V6C2.78613 5.45 2.98213 4.979 3.37413 4.587C3.76613 4.195 4.2368 3.99934 4.78613 4H20.7861C21.3361 4 21.8071 4.196 22.1991 4.588C22.5911 4.98 22.7868 5.45067 22.7861 6V18C22.7861 18.55 22.5901 19.021 22.1981 19.413C21.8061 19.805 21.3355 20.0007 20.7861 20H4.78613ZM12.7861 13L20.7861 8V6L12.7861 11L4.78613 6V8L12.7861 13Z" fill="#123B3A"/>
</svg>
