<svg width="24" height="25" viewBox="0 0 24 25" fill="none" xmlns="http://www.w3.org/2000/svg">
<path d="M18 10.9335H14V6.93347C14 6.40304 13.7893 5.89433 13.4142 5.51926C13.0391 5.14419 12.5304 4.93347 12 4.93347C11.4696 4.93347 10.9609 5.14419 10.5858 5.51926C10.2107 5.89433 10 6.40304 10 6.93347L10.071 10.9335H6C5.46957 10.9335 4.96086 11.1442 4.58579 11.5193C4.21071 11.8943 4 12.403 4 12.9335C4 13.4639 4.21071 13.9726 4.58579 14.3477C4.96086 14.7228 5.46957 14.9335 6 14.9335L10.071 14.8625L10 18.9335C10 19.4639 10.2107 19.9726 10.5858 20.3477C10.9609 20.7228 11.4696 20.9335 12 20.9335C12.5304 20.9335 13.0391 20.7228 13.4142 20.3477C13.7893 19.9726 14 19.4639 14 18.9335V14.8625L18 14.9335C18.5304 14.9335 19.0391 14.7228 19.4142 14.3477C19.7893 13.9726 20 13.4639 20 12.9335C20 12.403 19.7893 11.8943 19.4142 11.5193C19.0391 11.1442 18.5304 10.9335 18 10.9335Z" fill="black"/>
</svg>
