<svg width="13" height="18" viewBox="0 0 13 18" fill="none" xmlns="http://www.w3.org/2000/svg">
<path d="M6.62739 8.43864C6.07485 8.43864 5.54495 8.21915 5.15425 7.82844C4.76355 7.43774 4.54405 6.90784 4.54405 6.35531C4.54405 5.80277 4.76355 5.27287 5.15425 4.88217C5.54495 4.49147 6.07485 4.27197 6.62739 4.27197C7.17992 4.27197 7.70982 4.49147 8.10052 4.88217C8.49123 5.27287 8.71072 5.80277 8.71072 6.35531C8.71072 6.62889 8.65683 6.8998 8.55213 7.15256C8.44744 7.40532 8.29398 7.63499 8.10052 7.82844C7.90707 8.0219 7.6774 8.17536 7.42464 8.28006C7.17188 8.38475 6.90097 8.43864 6.62739 8.43864ZM6.62739 0.521973C5.08029 0.521973 3.59656 1.13655 2.5026 2.23052C1.40863 3.32448 0.794052 4.80821 0.794052 6.35531C0.794052 10.7303 6.62739 17.1886 6.62739 17.1886C6.62739 17.1886 12.4607 10.7303 12.4607 6.35531C12.4607 4.80821 11.8461 3.32448 10.7522 2.23052C9.65821 1.13655 8.17448 0.521973 6.62739 0.521973Z" fill="white"/>
</svg>
